<?xml version="1.0" standalone="no"?>
<!DOCTYPE svg PUBLIC "-//W3C//DTD SVG 20010904//EN"
 "http://www.w3.org/TR/2001/REC-SVG-20010904/DTD/svg10.dtd">
<svg version="1.0" xmlns="http://www.w3.org/2000/svg"
 width="512.000000pt" height="512.000000pt" viewBox="0 0 512.000000 512.000000"
 preserveAspectRatio="xMidYMid meet">

<g transform="translate(0.000000,512.000000) scale(0.100000,-0.100000)"
fill="white" stroke="none">
<path d="M1875 4466 c-62 -28 -60 0 -65 -706 l-5 -645 -109 265 c-60 146 -117
282 -128 302 -19 38 -61 68 -97 68 -55 0 -103 -48 -103 -104 0 -18 47 -145
105 -287 58 -139 113 -272 122 -294 13 -32 -73 49 -442 416 -354 353 -465 458
-489 464 -75 15 -144 -54 -129 -129 6 -24 111 -135 464 -489 367 -369 448
-455 416 -442 -22 9 -155 64 -294 122 -142 58 -269 105 -287 105 -56 0 -104
-48 -104 -103 0 -36 30 -78 68 -97 20 -10 156 -68 302 -128 l264 -109 -644 -5
c-604 -5 -647 -6 -672 -23 -58 -39 -58 -135 0 -174 25 -17 68 -18 672 -23
l644 -5 -264 -109 c-327 -135 -336 -139 -355 -176 -19 -37 -19 -63 0 -100 18
-36 47 -52 89 -52 18 0 146 47 287 105 139 58 272 113 294 122 32 13 -49 -73
-416 -442 -353 -354 -458 -465 -464 -489 -15 -75 54 -144 129 -129 24 6 135
111 489 464 369 367 455 448 442 416 -9 -22 -64 -155 -122 -294 -58 -142 -105
-269 -105 -287 0 -99 132 -140 187 -59 11 17 72 157 135 310 l115 280 5 -645
c5 -604 6 -647 23 -672 39 -58 135 -58 174 0 17 25 18 68 23 672 l5 645 115
-280 c63 -153 124 -293 135 -310 55 -81 187 -40 187 59 0 18 -47 145 -105 287
-58 139 -113 272 -122 294 -13 32 73 -49 442 -416 354 -353 465 -458 489 -464
75 -15 144 54 129 129 -6 24 -111 135 -464 489 -367 369 -448 455 -416 442 22
-9 155 -64 294 -122 141 -58 269 -105 287 -105 42 0 71 16 89 52 19 37 19 63
0 100 -19 37 -28 41 -354 176 l-265 109 1285 5 c1224 5 1285 6 1311 23 37 25
53 77 38 121 -6 19 -23 43 -38 53 -26 17 -87 18 -1311 23 l-1285 5 265 109
c145 60 281 118 301 128 38 19 68 61 68 97 0 55 -48 103 -104 103 -18 0 -145
-47 -287 -105 -139 -58 -272 -113 -294 -122 -32 -13 49 73 416 442 353 354
458 465 464 489 15 75 -54 144 -129 129 -24 -6 -135 -111 -489 -464 -369 -367
-455 -448 -442 -416 9 22 64 155 122 294 58 142 105 269 105 287 0 56 -48 104
-103 104 -36 0 -78 -30 -97 -68 -11 -20 -68 -156 -128 -302 l-109 -265 -5 645
c-5 602 -6 647 -23 672 -17 24 -63 49 -91 48 -6 -1 -24 -7 -41 -14z m183
-1620 c59 -30 116 -85 143 -138 l19 -38 -60 0 c-56 0 -64 3 -87 30 -42 51 -97
73 -167 68 -71 -4 -123 -34 -164 -95 -23 -33 -27 -48 -27 -113 0 -65 4 -80 27
-113 81 -118 244 -131 331 -27 23 27 31 30 87 30 l60 0 -19 -37 c-27 -54 -84
-109 -144 -140 -75 -39 -188 -39 -268 -2 -181 85 -241 302 -129 470 83 126
264 173 398 105z"/>
</g>
</svg>
