<?xml version="1.0" standalone="no"?>
<!DOCTYPE svg PUBLIC "-//W3C//DTD SVG 20010904//EN"
 "http://www.w3.org/TR/2001/REC-SVG-20010904/DTD/svg10.dtd">
<svg version="1.0" xmlns="http://www.w3.org/2000/svg"
 width="512.000000pt" height="512.000000pt" viewBox="0 0 512.000000 512.000000"
 preserveAspectRatio="xMidYMid meet">

<g transform="translate(0.000000,512.000000) scale(0.100000,-0.100000)"
fill="white" stroke="none">
<path d="M445 4556 c-41 -19 -83 -66 -95 -107 -6 -18 -10 -76 -10 -126 l0 -93
-29 0 c-72 0 -95 -13 -190 -104 -51 -50 -100 -105 -107 -123 -11 -25 -14 -108
-14 -373 0 -400 -7 -371 122 -496 84 -82 123 -104 191 -104 l27 0 0 -468 0
-469 30 -149 c16 -82 32 -158 35 -170 3 -15 -2 -25 -19 -34 -38 -20 -46 -52
-46 -188 0 -109 -4 -145 -32 -259 l-32 -131 -40 -6 c-55 -9 -109 -46 -129 -89
-14 -29 -17 -68 -17 -215 0 -170 1 -181 23 -213 12 -18 40 -44 62 -56 l40 -23
2384 0 c2359 0 2385 0 2425 20 23 11 52 36 66 57 24 36 25 41 25 223 l0 187
-28 36 c-32 42 -66 62 -120 72 -41 8 -34 -8 -81 182 l-26 102 0 916 c0 760 -2
921 -14 949 -17 41 -63 76 -141 106 -33 13 -61 24 -62 25 -2 1 -10 92 -18 203
-8 116 -20 215 -28 234 -19 46 -70 87 -118 94 l-39 7 0 139 c0 183 -18 229
-105 269 -38 18 -102 19 -1417 19 l-1377 0 -11 39 c-13 51 -43 87 -91 111 -36
19 -60 20 -501 20 -365 -1 -469 -4 -493 -14z m920 -926 l0 -765 -427 -3 -428
-2 0 770 0 770 428 -2 427 -3 0 -765z m2903 474 l-3 -127 -44 -13 c-44 -13
-83 -43 -104 -79 -9 -14 -13 -168 -17 -520 l-5 -500 -255 0 -255 0 -3 81 -3
82 60 4 c46 3 67 10 86 28 33 31 34 88 2 118 -21 20 -35 22 -167 24 l-145 3
-5 135 c-3 80 -10 144 -17 157 -28 49 -226 198 -284 213 -62 17 -105 -1 -229
-96 -143 -111 -149 -123 -150 -291 l0 -123 -145 0 c-142 0 -147 -1 -170 -25
-32 -31 -32 -75 -2 -111 20 -23 34 -28 85 -32 l62 -4 0 -84 0 -84 -510 0 -510
0 0 169 0 169 173 4 c120 2 180 8 197 17 14 7 59 47 101 87 l77 74 83 0 c99 0
129 18 129 80 0 55 -35 83 -111 88 l-60 4 3 82 3 81 61 5 c74 6 104 28 104 76
0 72 -33 94 -141 94 l-71 0 -80 75 c-51 48 -92 78 -116 85 -20 5 -108 10 -194
10 l-158 0 0 85 0 85 1365 0 1366 0 -3 -126z m-3928 -474 l0 -430 -22 0 c-14
0 -46 23 -85 62 l-63 62 0 305 0 305 62 63 c40 41 71 63 85 63 l23 0 0 -430z
m1557 198 l63 -62 0 -136 0 -136 -58 -57 -58 -57 -152 0 -152 0 0 255 0 255
147 0 147 0 63 -62z m2547 -60 c3 -18 10 -109 16 -202 6 -94 17 -184 24 -200
20 -45 53 -72 131 -104 l70 -29 3 -186 2 -187 -210 0 -210 0 0 470 0 470 85 0
84 0 5 -32z m-1283 -290 l79 -61 0 -109 0 -108 -167 2 -168 3 -3 30 c-2 17 -1
66 3 110 l7 80 76 58 c42 31 80 57 85 57 4 0 44 -28 88 -62z m249 -873 l0
-425 -340 0 -340 0 0 425 0 425 340 0 340 0 0 -425z m-850 0 l0 -85 -359 0
-359 0 -27 -32 c-32 -38 -29 -81 11 -115 25 -23 26 -23 380 -23 l354 0 0 -85
0 -85 -1025 0 -1025 0 0 255 0 255 1025 0 1025 0 0 -85z m2130 -170 l0 -255
-555 0 -555 0 0 85 0 84 320 3 c315 3 320 3 342 25 30 30 30 86 0 116 -22 22
-28 22 -340 27 l-317 5 -3 83 -3 82 556 0 555 0 0 -255z m0 -555 l0 -130
-2054 0 -2053 0 -22 113 c-12 61 -24 120 -27 130 -5 16 98 17 2075 17 l2081 0
0 -130z m-3308 -486 c41 -104 84 -196 97 -210 l24 -24 1098 0 1098 0 24 23
c14 12 75 106 136 210 l112 187 360 0 359 0 0 -80 c0 -61 10 -120 40 -242 23
-88 47 -173 55 -189 21 -40 70 -71 121 -77 l44 -5 0 -128 0 -129 -2345 0
-2345 0 0 130 0 130 34 0 c39 0 92 33 122 77 12 18 38 97 58 177 29 117 36
165 36 241 l0 95 399 0 399 0 74 -186z m2361 138 c-15 -27 -48 -83 -73 -125
l-45 -77 -1016 0 -1017 0 -50 125 -50 125 1140 0 1140 0 -29 -48z"/>
<path d="M815 4218 c-51 -29 -61 -93 -20 -133 23 -24 30 -25 142 -25 123 1
139 5 161 47 19 35 14 63 -17 94 -29 29 -31 29 -138 29 -62 0 -116 -5 -128
-12z"/>
<path d="M795 3945 c-37 -36 -34 -86 6 -119 28 -24 37 -26 132 -26 62 0 112 5
127 13 54 27 63 94 20 137 -18 18 -34 20 -140 20 -115 0 -122 -1 -145 -25z"/>
<path d="M835 3607 c-87 -42 -155 -143 -155 -232 0 -47 33 -128 67 -166 159
-175 444 -69 443 165 -1 144 -96 244 -240 253 -53 3 -74 0 -115 -20z m160
-172 c34 -33 34 -87 0 -120 -51 -52 -139 -14 -139 60 0 74 88 112 139 60z"/>
<path d="M2964 2836 c-186 -87 -196 -351 -16 -449 106 -58 218 -42 302 43 85
84 100 196 43 303 -63 115 -206 160 -329 103z m171 -178 c21 -25 25 -38 21
-62 -8 -39 -31 -63 -66 -71 -80 -18 -134 82 -75 140 36 37 86 34 120 -7z"/>
</g>
</svg>
