<?xml version="1.0" standalone="no"?>
<!DOCTYPE svg PUBLIC "-//W3C//DTD SVG 20010904//EN"
 "http://www.w3.org/TR/2001/REC-SVG-20010904/DTD/svg10.dtd">
<svg version="1.0" xmlns="http://www.w3.org/2000/svg"
 width="512.000000pt" height="512.000000pt" viewBox="0 0 512.000000 512.000000"
 preserveAspectRatio="xMidYMid meet">

<g transform="translate(0.000000,512.000000) scale(0.100000,-0.100000)"
fill="white" stroke="none">
<path d="M2438 4102 l-977 -977 35 -85 c57 -140 133 -367 169 -505 61 -235 71
-390 32 -485 -18 -43 -38 -68 -102 -123 -152 -132 -263 -196 -575 -331 -266
-116 -340 -166 -463 -314 -168 -202 -286 -434 -332 -654 -17 -78 -22 -227 -10
-293 20 -110 104 -229 194 -275 147 -74 371 -65 612 26 260 98 531 302 660
498 33 50 123 217 199 371 199 402 285 524 394 562 61 21 228 23 321 4 163
-35 391 -109 560 -183 50 -22 109 -47 133 -56 l42 -16 895 894 895 895 0 160
0 160 -853 853 -852 852 -977 -978z m1682 -187 l695 -695 -290 -291 c-160
-160 -321 -313 -358 -339 -126 -89 -242 -105 -299 -41 -36 40 -36 63 2 221 37
155 39 224 7 271 -12 18 -34 40 -47 47 -35 18 -118 9 -241 -28 -161 -48 -219
-38 -258 43 -39 80 -29 125 73 360 91 207 106 288 60 334 -23 23 -31 25 -77
20 -60 -8 -167 -56 -298 -137 -52 -33 -120 -70 -151 -84 -108 -48 -213 -52
-258 -11 -31 28 -53 99 -48 152 11 103 29 125 412 511 198 199 365 362 371
362 5 0 323 -313 705 -695z m-1222 -1218 l792 -792 -183 -183 -182 -182 -795
795 -795 795 180 180 c99 99 182 180 185 180 3 0 362 -357 798 -793z m-1992
-1875 c91 -46 153 -163 140 -260 -30 -218 -292 -308 -443 -150 -85 88 -98 234
-29 327 28 38 88 83 131 99 45 17 153 9 201 -16z"/>
</g>
</svg>
