<?xml version="1.0" standalone="no"?>
<!DOCTYPE svg PUBLIC "-//W3C//DTD SVG 20010904//EN"
 "http://www.w3.org/TR/2001/REC-SVG-20010904/DTD/svg10.dtd">
<svg version="1.0" xmlns="http://www.w3.org/2000/svg"
 width="512.000000pt" height="512.000000pt" viewBox="0 0 512.000000 512.000000"
 preserveAspectRatio="xMidYMid meet">

<g transform="translate(0.000000,512.000000) scale(0.100000,-0.100000)"
fill="white" stroke="none">
<path d="M1590 5105 c-302 -50 -531 -178 -612 -343 -30 -61 -33 -74 -33 -162
0 -91 2 -98 42 -180 53 -109 124 -187 261 -288 130 -96 223 -154 412 -262 278
-158 425 -263 570 -409 204 -206 328 -411 386 -639 32 -126 33 -291 3 -413
-26 -106 -100 -260 -175 -366 -64 -89 -171 -213 -183 -213 -5 0 -11 26 -14 57
-14 132 -69 273 -152 389 l-45 63 0 304 c0 272 -2 312 -20 383 -46 178 -180
315 -359 368 -77 23 -519 23 -606 1 -164 -43 -298 -169 -357 -335 -21 -61 -23
-84 -28 -400 l-5 -336 -31 -39 c-65 -83 -122 -208 -145 -317 -6 -28 -34 -251
-63 -497 l-52 -446 -139 -5 c-127 -5 -143 -7 -174 -29 -69 -49 -71 -62 -71
-478 0 -239 4 -382 11 -400 5 -15 22 -41 37 -57 48 -51 73 -56 294 -56 183 0
206 2 244 20 23 12 50 32 58 46 l17 24 37 -19 c20 -10 71 -30 112 -42 74 -24
79 -24 555 -24 476 0 481 0 555 24 41 12 92 32 112 42 l37 19 17 -24 c8 -14
35 -34 58 -46 38 -18 61 -20 248 -20 195 0 207 1 248 23 30 16 51 37 67 67 23
43 23 46 23 422 0 358 -1 381 -20 418 -11 21 -34 49 -52 62 -30 21 -45 23
-170 26 -76 2 -138 4 -138 5 -1 1 -16 130 -34 286 l-34 285 109 120 c224 248
337 435 394 651 102 390 -58 837 -435 1216 -158 159 -317 273 -624 448 -192
110 -286 170 -407 262 -175 133 -244 276 -190 394 53 117 271 223 525 255 207
26 427 -20 540 -113 l30 -24 -62 -33 c-107 -57 -177 -159 -189 -274 -7 -69 8
-129 57 -232 47 -98 113 -162 198 -194 84 -32 192 -25 288 19 69 32 73 32 114
18 l43 -14 185 -394 184 -394 -17 -65 c-26 -101 -30 -197 -11 -261 26 -93 213
-480 248 -516 43 -44 105 -73 162 -76 31 -1 48 -7 51 -17 11 -36 55 -233 53
-235 -2 -2 -22 -12 -44 -23 -166 -84 -331 -297 -386 -499 -27 -102 -30 -298
-5 -392 44 -163 102 -266 217 -382 114 -115 250 -191 395 -222 l53 -11 12 -60
c61 -313 347 -545 671 -546 353 -1 652 283 676 640 11 160 -46 341 -147 467
l-40 51 45 48 c88 96 144 241 145 375 0 71 -32 196 -67 262 -39 74 -155 188
-229 225 -121 61 -277 79 -394 46 -30 -8 -60 -16 -67 -17 -6 -1 -85 93 -174
208 -268 347 -244 313 -225 334 9 10 23 39 32 65 29 86 17 131 -103 389 -97
209 -114 237 -165 289 -39 38 -83 69 -139 97 l-83 40 -183 392 -183 392 17 50
c13 41 14 58 5 91 -14 54 -268 595 -290 620 -27 29 -88 56 -127 56 -35 0 -164
-54 -338 -142 l-78 -39 -38 31 c-55 43 -172 96 -266 120 -105 28 -316 35 -435
15z m1279 -421 c66 -143 121 -265 121 -270 0 -10 -278 -144 -297 -144 -10 0
-258 528 -251 535 6 6 302 145 304 142 1 -1 56 -119 123 -263z m-463 -219 c46
-99 84 -185 84 -191 0 -18 -94 -54 -139 -54 -51 0 -89 15 -123 47 -32 30 -88
159 -88 200 0 35 31 103 56 124 28 25 97 59 113 56 7 -1 51 -83 97 -182z m751
-602 l162 -347 -44 -17 c-24 -9 -59 -26 -77 -37 l-33 -21 -163 351 c-90 193
-161 352 -159 354 7 7 132 63 142 64 6 0 83 -156 172 -347z m363 -540 c92 -46
116 -79 223 -310 53 -117 97 -219 97 -227 0 -37 -26 -67 -79 -93 -31 -14 -108
-50 -171 -80 -123 -59 -171 -67 -201 -36 -10 10 -62 113 -116 228 -95 203 -98
212 -98 280 1 87 17 136 64 188 73 81 181 100 281 50z m-1863 -104 c43 -16 74
-37 119 -83 92 -94 97 -112 102 -403 l4 -243 -84 44 c-148 79 -266 108 -437
107 -164 0 -307 -38 -449 -117 l-64 -36 4 243 c3 243 3 244 31 305 37 79 107
148 183 179 57 24 68 25 296 25 217 0 242 -2 295 -21z m2515 -1171 c200 -260
371 -481 381 -490 28 -29 91 -24 116 8 40 51 30 77 -90 233 -84 110 -107 146
-97 153 7 5 52 7 99 5 110 -4 195 -42 262 -117 105 -117 131 -258 75 -407 -20
-56 -56 -97 -183 -210 -55 -49 -49 -71 44 -163 92 -90 142 -182 162 -294 53
-309 -192 -596 -509 -596 -114 0 -246 51 -336 131 -94 83 -166 229 -166 338 0
58 -27 114 -60 122 -14 4 -63 14 -110 23 -162 29 -314 129 -405 265 -167 252
-143 572 59 789 67 71 144 129 155 116 5 -5 49 -187 100 -404 81 -348 95 -398
117 -418 53 -47 134 -10 134 61 0 19 -63 302 -140 630 -77 327 -140 601 -140
609 0 12 139 88 162 88 4 0 170 -213 370 -472z m-2554 384 c202 -76 364 -239
426 -430 33 -102 26 -55 107 -752 65 -563 70 -621 60 -683 -28 -168 -144 -304
-317 -369 -58 -22 -66 -23 -524 -23 -461 0 -466 0 -533 23 -161 56 -278 188
-313 353 -16 78 -22 14 76 853 47 408 65 533 84 586 78 224 248 388 476 457
67 20 92 23 225 20 139 -3 156 -6 233 -35z m-1264 -1664 c-24 -224 10 -367
120 -511 20 -26 36 -56 36 -67 0 -19 -7 -20 -170 -20 l-170 0 0 340 0 340 96
0 96 0 -8 -82z m2206 -258 l0 -340 -170 0 c-166 0 -170 1 -170 21 0 11 16 40
36 62 49 57 102 171 120 259 16 71 15 180 -2 296 l-7 42 97 0 96 0 0 -340z"/>
<path d="M1210 2277 c-243 -83 -385 -308 -350 -555 37 -264 280 -460 545 -438
185 15 342 124 421 291 136 286 -15 617 -325 709 -81 24 -211 21 -291 -7z m70
-293 l0 -136 29 -29 c18 -17 40 -29 56 -29 16 0 38 12 56 29 l29 29 0 137 0
136 23 -7 c73 -22 157 -94 193 -166 90 -178 18 -381 -165 -467 -46 -21 -70
-26 -136 -26 -71 0 -89 4 -147 33 -214 105 -258 387 -87 547 42 40 117 84 142
85 4 0 7 -61 7 -136z"/>
<path d="M710 715 c-19 -20 -23 -35 -23 -85 2 -146 126 -270 286 -287 46 -5
57 -2 80 18 41 36 45 78 12 117 -20 23 -35 32 -58 32 -38 0 -106 30 -126 54
-8 10 -18 42 -22 73 -10 70 -38 103 -89 103 -26 0 -43 -7 -60 -25z"/>
</g>
</svg>
