<?xml version="1.0" standalone="no"?>
<!DOCTYPE svg PUBLIC "-//W3C//DTD SVG 20010904//EN"
 "http://www.w3.org/TR/2001/REC-SVG-20010904/DTD/svg10.dtd">
<svg version="1.0" xmlns="http://www.w3.org/2000/svg"
 width="512.000000pt" height="512.000000pt" viewBox="0 0 512.000000 512.000000"
 preserveAspectRatio="xMidYMid meet">

<g transform="translate(0.000000,512.000000) scale(0.100000,-0.100000)"
fill="white" stroke="none">
<path d="M1882 4347 l-22 -23 0 -858 c0 -585 3 -864 11 -877 25 -48 105 -44
128 7 8 18 11 264 11 873 0 843 0 848 -21 875 -27 34 -77 36 -107 3z"/>
<path d="M600 3350 c-36 -36 -21 -102 27 -121 35 -13 77 4 92 37 16 35 14 48
-10 78 -26 33 -79 36 -109 6z"/>
<path d="M3071 3187 c-15 -7 -111 -147 -252 -367 l-228 -355 -53 -6 c-69 -9
-128 -31 -181 -68 -74 -52 -605 -592 -622 -633 -47 -115 23 -249 146 -278 113
-27 240 53 210 133 -19 49 -69 60 -123 27 -18 -11 -39 -20 -45 -20 -21 0 -53
38 -53 63 0 33 548 578 610 606 44 20 64 21 638 21 l592 0 0 -55 0 -55 -514 0
c-301 0 -535 -4 -567 -10 -103 -19 -173 -64 -301 -189 -98 -97 -118 -122 -118
-147 0 -59 55 -98 103 -73 12 6 72 60 133 120 61 60 128 117 150 126 35 16 87
18 577 21 l537 3 0 -56 c0 -67 20 -119 63 -163 43 -44 79 -52 249 -52 140 0
147 -1 153 -21 11 -35 77 -101 120 -120 36 -17 74 -19 412 -19 370 0 372 0
393 22 37 40 21 97 -34 118 -17 6 -156 10 -367 10 l-340 0 -24 25 -25 24 0
439 0 439 26 24 26 24 358 3 359 3 21 26 c11 14 20 36 20 49 0 28 -30 61 -63
69 -13 4 -180 5 -373 3 -336 -3 -350 -4 -390 -25 -45 -24 -108 -89 -119 -122
-6 -20 -12 -21 -163 -21 -135 0 -161 -3 -197 -20 -69 -34 -105 -100 -105 -196
l0 -54 -471 0 c-373 0 -469 3 -463 13 4 6 94 148 200 313 106 166 196 313 200
328 5 20 0 32 -24 56 -34 33 -45 36 -81 17z m1089 -932 l0 -325 -138 0 c-94 0
-142 4 -150 12 -17 17 -17 609 0 626 8 8 56 12 150 12 l138 0 0 -325z"/>
<path d="M782 3067 c-45 -48 -67 -7 392 -722 159 -248 188 -284 229 -285 26 0
67 45 67 75 0 28 -554 905 -592 938 -28 24 -70 21 -96 -6z"/>
<path d="M1885 2345 c-47 -46 -17 -125 49 -125 34 0 76 41 76 75 0 14 -11 37
-25 50 -13 14 -36 25 -50 25 -14 0 -37 -11 -50 -25z"/>
<path d="M118 2140 c-32 -25 -39 -49 -23 -87 10 -23 30 -37 108 -71 52 -23
106 -42 120 -42 60 0 93 75 53 119 -17 19 -196 101 -220 101 -7 0 -25 -9 -38
-20z"/>
<path d="M615 1940 c-49 -19 -65 -85 -29 -119 29 -27 409 -191 443 -191 30 0
71 38 71 66 0 47 -22 63 -224 152 -229 102 -234 103 -261 92z"/>
<path d="M2961 1836 c-90 -40 -170 -81 -178 -91 -33 -47 0 -115 56 -115 39 0
341 134 364 161 9 12 17 32 17 46 0 31 -42 73 -72 72 -13 0 -97 -33 -187 -73z"/>
<path d="M1464 1311 c-56 -25 -110 -84 -128 -139 -11 -31 -16 -82 -16 -159 l0
-113 -641 -2 -641 -3 -19 -24 c-25 -30 -24 -62 2 -95 l20 -26 2519 0 2519 0
20 26 c26 33 27 65 2 95 l-19 24 -1586 3 -1586 2 0 140 0 140 1564 0 c1058 0
1574 3 1592 10 55 21 71 78 34 118 l-21 22 -1787 0 c-1718 0 -1789 -1 -1828
-19z m296 -271 l0 -140 -145 0 -145 0 0 109 c0 103 1 111 26 140 l26 31 119 0
119 0 0 -140z"/>
</g>
</svg>
