<?xml version="1.0" standalone="no"?>
<!DOCTYPE svg PUBLIC "-//W3C//DTD SVG 20010904//EN"
 "http://www.w3.org/TR/2001/REC-SVG-20010904/DTD/svg10.dtd">
<svg version="1.0" xmlns="http://www.w3.org/2000/svg"
 width="512.000000pt" height="512.000000pt" viewBox="0 0 512.000000 512.000000"
 preserveAspectRatio="xMidYMid meet">

<g transform="translate(0.000000,512.000000) scale(0.100000,-0.100000)"
fill="#000000" stroke="none">
<path d="M1200 4970 l0 -150 605 0 605 0 0 -237 0 -238 -58 -30 c-75 -39 -160
-126 -195 -200 -15 -33 -31 -67 -36 -75 -4 -7 -103 -46 -219 -84 l-212 -71
-86 -258 c-47 -142 -82 -262 -78 -267 16 -14 265 -92 272 -85 4 3 34 88 68
188 l61 182 99 32 c54 18 107 36 116 39 11 3 19 -2 23 -16 3 -11 24 -42 46
-70 139 -176 412 -214 606 -85 52 35 126 118 138 155 8 26 11 25 134 -18 l105
-37 60 -182 c34 -100 64 -185 68 -188 7 -7 256 71 272 85 4 5 -31 125 -78 267
l-86 258 -213 71 -212 70 -38 78 c-44 92 -116 168 -199 211 l-58 30 0 238 0
237 605 0 605 0 0 150 0 150 -1360 0 -1360 0 0 -150z"/>
<path d="M450 2335 l0 -525 605 0 605 0 0 525 0 525 -605 0 -605 0 0 -525z"/>
<path d="M1960 2335 l0 -525 600 0 600 0 0 525 0 525 -600 0 -600 0 0 -525z"/>
<path d="M3460 2335 l0 -525 605 0 605 0 0 525 0 525 -605 0 -605 0 0 -525z"/>
<path d="M680 1500 c-102 -12 -188 -38 -280 -83 -68 -33 -103 -59 -176 -132
-79 -78 -98 -103 -137 -185 -60 -127 -80 -215 -79 -354 3 -356 213 -628 555
-719 l82 -22 1915 0 1915 0 81 22 c344 92 555 366 555 723 1 139 -22 236 -83
360 -34 69 -58 102 -132 175 -104 104 -199 158 -346 197 l-85 22 -1860 2
c-1023 1 -1889 -2 -1925 -6z m659 -319 c198 -61 317 -231 314 -446 -4 -262
-260 -473 -520 -427 -242 44 -409 270 -373 505 27 178 141 314 308 368 77 24
193 24 271 0z m1330 8 c241 -55 389 -308 326 -554 -44 -167 -190 -297 -370
-328 -215 -37 -444 114 -500 328 -63 243 85 498 322 554 52 12 169 13 222 0z
m1380 -8 c169 -53 284 -188 311 -368 45 -292 -221 -554 -514 -505 -245 41
-410 263 -375 506 24 175 140 313 307 367 77 24 193 24 271 0z"/>
<path d="M1145 891 c-11 -5 -32 -21 -47 -36 -80 -79 -41 -212 71 -246 37 -11
47 -10 88 7 104 43 129 163 49 242 -29 30 -43 36 -88 39 -29 1 -62 -1 -73 -6z"/>
<path d="M2479 877 c-66 -44 -87 -128 -48 -197 27 -48 72 -74 129 -74 57 0
102 26 129 74 56 100 -14 220 -129 220 -32 0 -58 -7 -81 -23z"/>
<path d="M3855 890 c-33 -13 -76 -66 -84 -101 -16 -74 17 -141 86 -171 132
-59 261 91 185 215 -36 56 -124 84 -187 57z"/>
</g>
</svg>
