<?xml version="1.0" standalone="no"?>
<!DOCTYPE svg PUBLIC "-//W3C//DTD SVG 20010904//EN"
 "http://www.w3.org/TR/2001/REC-SVG-20010904/DTD/svg10.dtd">
<svg version="1.0" xmlns="http://www.w3.org/2000/svg"
 width="512.000000pt" height="512.000000pt" viewBox="0 0 512.000000 512.000000"
 preserveAspectRatio="xMidYMid meet">

<g transform="translate(0.000000,512.000000) scale(0.100000,-0.100000)"
fill="#000000" stroke="none">
<path d="M1139 5091 l-29 -29 0 -457 0 -456 25 -24 24 -25 316 0 315 0 0 -220
c0 -246 5 -269 61 -289 18 -6 70 -11 115 -11 l84 0 0 -402 0 -402 233 -233
233 -233 44 0 44 0 233 233 233 233 0 402 0 402 84 0 c45 0 97 5 115 11 56 20
61 43 61 289 l0 220 315 0 316 0 24 25 25 24 0 456 0 457 -29 29 -29 29 -1392
0 -1392 0 -29 -29z m313 -331 c3 -181 4 -191 25 -212 33 -33 89 -30 119 6 23
26 24 32 24 212 l0 184 130 0 130 0 0 -230 0 -231 25 -24 c33 -34 83 -34 116
1 24 25 24 28 27 255 l3 229 85 0 84 0 0 -144 c0 -141 0 -144 26 -170 29 -28
77 -35 105 -13 33 25 39 55 39 192 l0 136 128 -3 127 -3 5 -148 c5 -141 6
-150 29 -168 32 -26 74 -24 108 5 28 24 28 24 31 170 l4 146 124 0 124 0 0
-175 c0 -196 7 -225 60 -243 35 -13 56 -8 88 21 21 20 22 26 22 209 l0 188
130 0 130 0 0 -229 0 -228 25 -27 c26 -28 77 -35 106 -13 35 27 39 53 39 276
l0 221 85 0 85 0 0 -340 0 -340 -1280 0 -1280 0 0 340 0 340 84 0 85 0 3 -190z
m1703 -835 l0 -170 -595 0 -595 0 -3 160 c-1 87 0 165 2 172 4 11 120 13 598
11 l593 -3 0 -170z m-685 -462 c0 -152 10 -190 56 -209 29 -12 39 -12 68 0 46
19 56 57 56 209 l0 117 125 0 125 0 0 -363 0 -362 -170 -170 -170 -170 -170
170 -170 170 0 362 0 363 125 0 125 0 0 -117z"/>
<path d="M2513 3055 c-49 -34 -56 -164 -12 -212 32 -33 87 -32 120 3 21 22 24
35 24 101 0 70 -2 76 -28 99 -32 27 -73 31 -104 9z"/>
<path d="M209 2541 c-13 -10 -66 -104 -118 -208 -100 -202 -105 -223 -61 -261
11 -9 431 -190 933 -402 l912 -386 3 -387 2 -387 -912 0 c-702 -1 -917 -3
-929 -13 -35 -27 -39 -54 -39 -247 l0 -192 29 -29 29 -29 2502 0 2502 0 29 29
29 29 0 192 c0 193 -4 220 -39 247 -12 10 -227 12 -929 13 l-912 0 2 387 3
386 913 387 c502 212 922 394 932 403 44 37 39 59 -61 260 -92 186 -122 227
-162 227 -11 0 -535 -210 -1163 -466 l-1144 -466 -1143 466 c-629 256 -1153
466 -1164 466 -11 0 -31 -9 -44 -19z m1209 -633 c732 -298 1119 -451 1142
-451 23 0 410 153 1142 451 609 249 1111 452 1115 452 11 0 99 -177 92 -184
-2 -3 -532 -224 -1177 -491 l-1172 -486 -1172 486 c-645 267 -1175 488 -1177
491 -7 7 81 184 92 184 4 0 506 -203 1115 -452z m965 -822 l177 -66 178 66
c97 36 212 79 255 95 l77 28 0 -179 0 -180 -184 0 c-170 0 -185 -1 -210 -21
-20 -16 -26 -29 -26 -57 1 -80 33 -92 251 -92 l169 0 0 -85 0 -85 -510 0 -510
0 0 85 0 85 169 0 c218 0 250 12 251 92 0 28 -6 41 -26 57 -25 20 -40 21 -210
21 l-184 0 0 180 0 179 78 -28 c42 -16 157 -59 255 -95z m2567 -831 l0 -85
-2390 0 -2390 0 0 85 0 85 2390 0 2390 0 0 -85z"/>
</g>
</svg>
