<?xml version="1.0" standalone="no"?>
<!DOCTYPE svg PUBLIC "-//W3C//DTD SVG 20010904//EN"
 "http://www.w3.org/TR/2001/REC-SVG-20010904/DTD/svg10.dtd">
<svg version="1.0" xmlns="http://www.w3.org/2000/svg"
 width="1600.000000pt" height="1600.000000pt" viewBox="0 0 1600.000000 1600.000000"
 preserveAspectRatio="xMidYMid meet">

<g transform="translate(0.000000,1600.000000) scale(0.100000,-0.100000)"
fill="#000000" stroke="none">
<path d="M6751 11562 c-580 -2317 -594 -2370 -615 -2362 -11 4 -910 389 -1996
855 -1086 466 -1985 851 -1997 856 -21 8 -22 7 -12 -19 17 -42 1658 -4418
1690 -4504 l28 -77 -1719 -573 c-946 -315 -1720 -576 -1720 -579 0 -13 3802
-2671 3809 -2663 31 34 554 792 555 803 1 8 -471 345 -1076 770 -593 416
-1078 760 -1079 766 0 5 568 199 1263 431 986 329 1262 424 1260 436 -1 9
-286 771 -632 1694 -346 923 -628 1679 -627 1680 1 1 666 -283 1477 -631 811
-348 1477 -631 1480 -628 3 2 188 734 411 1626 l406 1622 807 -1615 c445 -888
809 -1616 811 -1618 2 -2 719 355 1595 793 876 438 1594 794 1596 792 2 -2
-364 -834 -815 -1848 -451 -1014 -821 -1850 -823 -1858 -2 -10 358 -134 1334
-460 l1338 -446 -915 -779 c-504 -429 -918 -783 -921 -788 -7 -10 625 -753
641 -753 12 0 3177 2690 3183 2705 2 4 -742 256 -1652 560 l-1655 551 18 42
c10 23 535 1203 1166 2622 631 1419 1149 2586 1152 2593 3 7 -1074 -527 -2393
-1186 l-2399 -1200 -1191 2381 -1191 2380 -592 -2371z"/>
<path d="M7951 8453 c-2 -21 -441 -2897 -447 -2922 -5 -22 -86 56 -751 720
-410 409 -743 735 -740 724 2 -11 222 -564 487 -1230 265 -665 485 -1218 487
-1227 5 -17 -47 -18 -988 -19 l-994 0 993 -497 c545 -273 992 -500 992 -503 0
-3 -334 -228 -741 -500 l-742 -494 1372 -3 c754 -1 1988 -1 2742 0 l1372 3
-742 494 c-407 272 -741 497 -741 500 0 3 446 229 990 501 l990 495 -994 5
-994 5 494 1235 c272 679 493 1238 492 1242 -2 4 -449 -328 -995 -737 l-992
-744 -10 52 c-6 29 -128 691 -271 1472 -143 781 -262 1425 -264 1430 -3 6 -5
5 -5 -2z"/>
</g>
</svg>
