<svg version="1.1" id="Layer_1" xmlns="http://www.w3.org/2000/svg" xmlns:xlink="http://www.w3.org/1999/xlink" x="0px" y="0px"
	 width="100%" viewBox="0 0 570 88" enable-background="new 0 0 570 88" xml:space="preserve">
<path fill="white" opacity="1.000000" stroke="none" 
	d="
M318.000000,1.000000 
	C324.021149,1.000000 330.042297,1.000000 336.547974,1.212247 
	C337.032532,1.424494 337.047913,1.849956 337.030579,2.328039 
	C337.008392,29.276144 336.940063,55.746483 337.072266,82.215820 
	C337.090515,85.867813 336.157318,87.252510 332.329376,87.085480 
	C326.350800,86.824615 320.348999,87.095650 314.074615,87.007271 
	C297.462280,69.329224 281.146790,51.771721 264.765686,34.275654 
	C263.809753,33.254635 262.322998,32.730629 260.767120,32.255756 
	C260.299438,34.341389 260.020874,36.146278 260.016418,37.951847 
	C259.980499,52.440289 259.845581,66.931396 260.089905,81.415810 
	C260.161499,85.660400 259.237549,87.490913 254.620758,87.096359 
	C249.826508,86.686623 244.969604,87.009819 240.058746,86.549286 
	C239.984924,57.724056 239.992462,29.362028 240.000000,1.000000 
	C247.020950,1.000000 254.041916,1.000000 261.705383,1.294088 
	C263.620911,2.587078 265.042572,3.444905 266.144562,4.606129 
	C281.685638,20.982557 297.169281,37.413490 312.718903,53.781750 
	C313.911133,55.036743 315.494629,55.919994 317.220276,56.709160 
	C317.695129,55.473274 317.977142,54.504295 317.977264,53.535275 
	C317.979553,36.271938 317.947601,19.008598 317.889008,1.553442 
	C317.854980,1.361626 318.000000,1.000000 318.000000,1.000000 
z"/>
<path fill="white" opacity="1.000000" stroke="none" 
	d="
M95.000000,89.000000 
	C88.312355,89.000000 81.624710,89.000000 74.475647,88.531387 
	C74.014793,77.979050 74.056129,67.894974 73.972916,57.811928 
	C73.960114,56.260941 73.374161,54.714680 72.781845,52.836105 
	C71.880913,52.341534 71.251724,52.034939 70.621841,52.033520 
	C56.563713,52.001854 42.505344,51.974468 28.447615,52.052719 
	C27.268988,52.059277 26.094553,52.818962 24.821285,53.402679 
	C24.526333,53.758755 24.300552,53.894936 23.734756,54.267639 
	C23.280226,61.326946 23.218750,68.106766 22.967041,74.879524 
	C22.802336,79.311340 22.362082,83.732910 22.045479,88.369926 
	C22.045712,88.580780 22.000000,89.000000 22.000000,89.000000 
	C15.023470,89.000000 8.046940,89.000000 1.035205,89.000000 
	C1.035205,59.788521 1.035205,30.576990 1.035205,1.000000 
	C8.016584,1.000000 15.039510,1.000000 22.566936,1.203092 
	C23.071436,1.406185 23.055841,1.818309 23.034561,2.298133 
	C23.007439,10.819028 22.930241,18.861073 23.039886,26.900570 
	C23.072157,29.266529 23.633486,31.625271 24.051460,34.154453 
	C24.150568,34.321587 24.075186,34.702816 24.173651,34.962067 
	C24.839439,35.179615 25.406763,35.137905 26.436909,35.006844 
	C42.500088,34.917492 58.100445,34.917492 74.000000,34.917492 
	C74.000000,23.256935 74.000000,12.128468 74.000000,1.000000 
	C81.020950,1.000000 88.041893,1.000000 95.589813,1.189072 
	C96.116791,1.378145 96.070633,1.771213 96.045090,2.253896 
	C96.016914,31.138660 96.014282,59.540745 95.777840,88.055969 
	C95.362686,88.446083 95.181343,88.723038 95.000000,89.000000 
z"/>
<path fill="none" opacity="1.000000" stroke="none" 
	d="
M451.000000,1.000000 
	C468.020905,1.000000 485.041779,1.000000 502.583008,1.364678 
	C500.545685,6.930916 498.014282,12.145576 495.425842,17.331762 
	C483.886658,40.451401 472.331177,63.562912 460.512817,86.878151 
	C460.162720,87.719292 460.081360,88.359642 460.000000,89.000000 
	C456.969391,89.000000 453.938812,89.000000 450.453308,88.722778 
	C449.958435,88.265114 449.918396,88.084679 449.938171,87.446014 
	C449.690308,81.226303 449.382629,75.464844 448.787537,69.574112 
	C448.299866,69.508720 448.099670,69.572594 447.455231,69.495033 
	C428.776459,69.353607 410.541962,69.353607 392.307434,69.353607 
	C392.596680,67.737671 393.469238,67.248596 394.171570,66.580566 
	C410.906006,50.663681 427.396423,34.479511 444.473755,18.940193 
	C449.873474,14.026819 452.128815,9.012514 450.867188,1.830656 
	C450.967041,1.374304 450.983521,1.187152 451.000000,1.000000 
z"/>
<path fill="white" opacity="1.000000" stroke="none" 
	d="
M460.781616,86.677368 
	C472.331177,63.562912 483.886658,40.451401 495.425842,17.331762 
	C498.014282,12.145576 500.545685,6.930916 503.051666,1.364678 
	C510.687592,1.000000 518.375183,1.000000 526.605835,1.344287 
	C532.442993,12.191319 537.777405,22.673937 543.021973,33.201290 
	C552.105774,51.435043 561.133911,69.696510 569.705505,87.974678 
	C565.791748,88.003845 562.351990,87.878708 558.925476,88.037308 
	C554.611389,88.236969 550.307983,88.668518 546.000000,89.000000 
	C546.000000,89.000000 545.500000,89.000000 545.113220,88.677078 
	C534.832764,67.503738 524.939148,46.653328 514.814453,25.315926 
	C511.984558,30.832758 509.452393,35.440933 507.216217,40.188511 
	C499.724915,56.092957 492.339355,72.047203 484.450409,87.992554 
	C477.902008,88.003662 471.814178,88.097435 465.732544,87.944656 
	C464.072662,87.902954 462.431427,87.120094 460.781616,86.677368 
z"/>
<path fill="white" opacity="1.000000" stroke="none" 
	d="
M139.000000,89.000000 
	C138.555557,89.000000 138.111099,89.000000 137.045425,88.696335 
	C128.948486,88.261978 121.472786,88.131287 114.026978,87.647507 
	C124.037102,67.454506 134.054459,47.633121 143.980652,27.766190 
	C148.414856,18.891294 152.665863,9.924883 157.000000,1.000001 
	C164.687576,1.000000 172.375168,1.000000 180.569794,1.359136 
	C187.534668,14.591665 194.029831,27.446507 200.440842,40.343178 
	C208.328308,56.209988 216.145615,72.111671 223.525070,87.997490 
	C214.826065,87.976418 206.595230,87.956131 198.168121,87.626450 
	C188.287628,66.787163 178.603455,46.257263 168.583725,25.016043 
	C162.411087,38.146107 156.567612,50.445930 150.841644,62.800209 
	C146.811691,71.495132 142.941513,80.264091 139.000000,89.000000 
z"/>
<path fill="none" opacity="1.000000" stroke="none" 
	d="
M156.531342,1.000001 
	C152.665863,9.924883 148.414856,18.891294 143.980652,27.766190 
	C134.054459,47.633121 124.037102,67.454506 113.868744,87.897827 
	C113.787086,88.667488 113.893547,88.833748 114.000000,89.000000 
	C107.978844,89.000000 101.957695,89.000000 95.468269,89.000000 
	C95.181343,88.723038 95.362686,88.446083 96.209839,87.944305 
	C96.964470,87.231552 97.130722,86.743652 97.131004,86.255653 
	C97.146896,59.258747 97.162376,32.261806 97.106483,5.265014 
	C97.104073,4.099704 96.431190,2.935781 96.070633,1.771213 
	C96.070633,1.771213 96.116791,1.378145 96.058395,1.189072 
	C116.020897,1.000000 136.041794,1.000000 156.531342,1.000001 
z"/>
<path fill="none" opacity="1.000000" stroke="none" 
	d="
M337.047913,1.849954 
	C337.047913,1.849956 337.032532,1.424494 337.016266,1.212247 
	C343.687653,1.000000 350.375275,1.000000 357.544373,1.269596 
	C358.066925,1.714366 358.108063,1.889541 358.086548,2.523807 
	C358.074860,7.995722 358.125732,13.008547 358.265808,18.452972 
	C376.906525,18.931684 395.458008,18.978792 414.157043,19.250313 
	C413.239960,20.704542 412.266388,22.029318 411.097076,23.149868 
	C394.538910,39.017628 378.185669,55.111687 361.239227,70.554482 
	C355.941162,75.382492 353.906555,80.313766 355.027100,87.243805 
	C354.954468,87.472954 355.071869,87.939163 355.022949,88.202271 
	C354.982666,88.643585 354.991333,88.821793 355.000000,89.000000 
	C349.311951,89.000000 343.623932,89.000000 337.622437,88.601158 
	C337.551453,87.129250 338.003967,86.056503 338.005554,84.983078 
	C338.044922,58.443523 338.049194,31.903873 337.994812,5.364370 
	C337.992401,4.192255 337.377533,3.021396 337.047913,1.849954 
z"/>
<path fill="none" opacity="1.000000" stroke="none" 
	d="
M223.993256,87.998283 
	C216.145615,72.111671 208.328308,56.209988 200.440842,40.343178 
	C194.029831,27.446507 187.534668,14.591665 181.038422,1.359136 
	C200.354233,1.000000 219.708450,1.000000 239.531342,1.000000 
	C239.992462,29.362028 239.984924,57.724056 239.982132,86.874649 
	C239.991241,88.108810 239.995621,88.554405 240.000000,89.000000 
	C234.977905,89.000000 229.955811,89.000000 224.658234,88.748276 
	C224.252945,88.330460 224.123108,88.164368 223.993256,87.998283 
z"/>
<path fill="none" opacity="1.000000" stroke="none" 
	d="
M570.185425,87.946358 
	C561.133911,69.696510 552.105774,51.435043 543.021973,33.201290 
	C537.777405,22.673937 532.442993,12.191319 527.074463,1.344287 
	C541.617493,1.000000 556.235046,1.000000 571.000000,1.000000 
	C571.000000,29.687407 571.000000,58.375046 570.801147,87.444824 
	C570.602356,87.826958 570.185425,87.946358 570.185425,87.946358 
z"/>
<path fill="none" opacity="1.000000" stroke="none" 
	d="
M484.913330,87.982384 
	C492.339355,72.047203 499.724915,56.092957 507.216217,40.188511 
	C509.452393,35.440933 511.984558,30.832758 514.814453,25.315926 
	C524.939148,46.653328 534.832764,67.503738 544.863220,88.677078 
	C525.312439,89.000000 505.624878,89.000000 485.449371,88.745392 
	C484.945404,88.321320 484.929352,88.151855 484.913330,87.982384 
z"/>
<path fill="none" opacity="1.000000" stroke="none" 
	d="
M139.468658,89.000000 
	C142.941513,80.264091 146.811691,71.495132 150.841644,62.800209 
	C156.567612,50.445930 162.411087,38.146107 168.583725,25.016043 
	C178.603455,46.257263 188.287628,66.787163 198.173233,87.925446 
	C198.249771,88.689217 198.124893,88.844612 198.000000,89.000000 
	C178.645767,89.000000 159.291550,89.000000 139.468658,89.000000 
z"/>
<path fill="none" opacity="1.000000" stroke="none" 
	d="
M24.047054,53.985153 
	C24.300552,53.894936 24.526333,53.758755 25.289921,53.486469 
	C41.588055,53.319633 57.320667,53.242931 73.053268,53.166233 
	C73.374161,54.714680 73.960114,56.260941 73.972916,57.811928 
	C74.056129,67.894974 74.014793,77.979050 74.007111,88.531387 
	C56.979103,89.000000 39.958210,89.000000 22.468658,89.000000 
	C22.000000,89.000000 22.045712,88.580780 22.487051,88.313171 
	C23.317051,86.782661 24.032919,85.522263 24.042587,84.256454 
	C24.119648,74.166595 24.062828,64.075722 24.047054,53.985153 
z"/>
<path fill="none" opacity="1.000000" stroke="none" 
	d="
M73.531342,1.000000 
	C74.000000,12.128468 74.000000,23.256935 74.000000,34.917492 
	C58.100445,34.917492 42.500088,34.917492 26.120346,34.939175 
	C24.919037,34.874844 24.497110,34.788830 24.075186,34.702816 
	C24.075186,34.702816 24.150568,34.321587 24.113537,33.690159 
	C24.082087,24.135328 24.135246,15.211452 24.046574,6.288987 
	C24.031733,4.795626 23.401642,3.308380 23.055841,1.818309 
	C23.055841,1.818309 23.071436,1.406185 23.035717,1.203092 
	C39.687561,1.000000 56.375122,1.000000 73.531342,1.000000 
z"/>
<path fill="none" opacity="1.000000" stroke="none" 
	d="
M261.083252,31.975323 
	C262.322998,32.730629 263.809753,33.254635 264.765686,34.275654 
	C281.146790,51.771721 297.462280,69.329224 314.214905,87.307564 
	C314.758453,88.161270 314.879242,88.580635 315.000000,89.000000 
	C296.979095,89.000000 278.958221,89.000000 260.683411,88.621933 
	C260.713684,87.523575 261.246399,86.803009 261.245605,86.083031 
	C261.225647,68.047096 261.149475,50.011211 261.083252,31.975323 
z"/>
<path fill="none" opacity="1.000000" stroke="none" 
	d="
M317.531342,1.000000 
	C318.000000,1.000000 317.854980,1.361626 317.485535,1.767900 
	C317.042816,20.441465 316.969543,38.708755 316.896271,56.976044 
	C315.494629,55.919994 313.911133,55.036743 312.718903,53.781750 
	C297.169281,37.413490 281.685638,20.982557 266.144562,4.606129 
	C265.042572,3.444905 263.620911,2.587078 262.173950,1.294088 
	C280.354218,1.000000 298.708466,1.000000 317.531342,1.000000 
z"/>
<path fill="none" opacity="1.000000" stroke="none" 
	d="
M315.468567,89.000000 
	C314.879242,88.580635 314.758453,88.161270 314.497375,87.441620 
	C320.348999,87.095650 326.350800,86.824615 332.329376,87.085480 
	C336.157318,87.252510 337.090515,85.867813 337.072266,82.215820 
	C336.940063,55.746483 337.008392,29.276144 337.030579,2.328037 
	C337.377533,3.021396 337.992401,4.192255 337.994812,5.364370 
	C338.049194,31.903873 338.044922,58.443523 338.005554,84.983078 
	C338.003967,86.056503 337.551453,87.129250 337.154510,88.601158 
	C329.979034,89.000000 322.958099,89.000000 315.468567,89.000000 
z"/>
<path fill="none" opacity="1.000000" stroke="none" 
	d="
M260.767120,32.255753 
	C261.149475,50.011211 261.225647,68.047096 261.245605,86.083031 
	C261.246399,86.803009 260.713684,87.523575 260.214783,88.621933 
	C253.645599,89.000000 247.291214,89.000000 240.468414,89.000000 
	C239.995621,88.554405 239.991241,88.108810 240.063492,87.337852 
	C244.969604,87.009819 249.826508,86.686623 254.620758,87.096359 
	C259.237549,87.490913 260.161499,85.660400 260.089905,81.415810 
	C259.845581,66.931396 259.980499,52.440289 260.016418,37.951847 
	C260.020874,36.146278 260.299438,34.341389 260.767120,32.255753 
z"/>
<path fill="none" opacity="1.000000" stroke="none" 
	d="
M355.468658,89.000000 
	C354.991333,88.821793 354.982666,88.643585 355.248901,88.224899 
	C355.523804,87.984413 355.970337,87.901024 356.437866,87.957870 
	C387.282562,87.970833 417.659729,87.926956 448.265381,87.910675 
	C448.493835,87.938278 448.937836,87.817047 449.171021,87.859894 
	C449.404205,87.902740 449.878387,87.904251 449.878387,87.904251 
	C449.918396,88.084679 449.958435,88.265114 449.999207,88.722778 
	C418.645782,89.000000 387.291534,89.000000 355.468658,89.000000 
z"/>
<path fill="none" opacity="1.000000" stroke="none" 
	d="
M358.149170,2.064716 
	C358.108063,1.889541 358.066925,1.714366 358.012909,1.269596 
	C388.687561,1.000000 419.375122,1.000000 450.531342,1.000000 
	C450.983521,1.187152 450.967041,1.374304 450.651245,1.869652 
	C450.351929,2.177848 449.916016,2.228632 449.701843,2.150556 
	C449.487640,2.072479 449.031921,2.087306 448.562744,2.047572 
	C418.112091,2.026797 388.130615,2.045756 358.149170,2.064716 
z"/>
<path fill="none" opacity="1.000000" stroke="none" 
	d="
M484.450409,87.992554 
	C484.929352,88.151855 484.945404,88.321320 484.980713,88.745392 
	C476.979095,89.000000 468.958191,89.000000 460.468628,89.000000 
	C460.081360,88.359642 460.162720,87.719292 460.512848,86.878159 
	C462.431427,87.120094 464.072662,87.902954 465.732544,87.944656 
	C471.814178,88.097435 477.902008,88.003662 484.450409,87.992554 
z"/>
<path fill="none" opacity="1.000000" stroke="none" 
	d="
M198.468658,89.000000 
	C198.124893,88.844612 198.249771,88.689217 198.369537,88.234833 
	C206.595230,87.956131 214.826065,87.976418 223.525070,87.997490 
	C224.123108,88.164368 224.252945,88.330460 224.191376,88.748276 
	C215.645767,89.000000 207.291534,89.000000 198.468658,89.000000 
z"/>
<path fill="none" opacity="1.000000" stroke="none" 
	d="
M569.705505,87.974678 
	C570.185425,87.946358 570.602356,87.826958 570.801147,87.913475 
	C570.350464,88.333328 569.703613,88.950470 569.051025,88.956543 
	C561.680359,89.025131 554.308716,89.000000 546.468689,89.000000 
	C550.307983,88.668518 554.611389,88.236969 558.925476,88.037308 
	C562.351990,87.878708 565.791748,88.003845 569.705505,87.974678 
z"/>
<path fill="none" opacity="1.000000" stroke="none" 
	d="
M114.468620,89.000000 
	C113.893547,88.833748 113.787086,88.667488 113.838860,88.250908 
	C121.472786,88.131287 128.948486,88.261978 136.712097,88.696335 
	C129.645752,89.000000 122.291496,89.000000 114.468620,89.000000 
z"/>
<path fill="none" opacity="1.000000" stroke="none" 
	d="
M317.220276,56.709160 
	C316.969543,38.708755 317.042816,20.441465 317.519562,1.959717 
	C317.947601,19.008598 317.979553,36.271938 317.977264,53.535275 
	C317.977142,54.504295 317.695129,55.473274 317.220276,56.709160 
z"/>
<path fill="none" opacity="1.000000" stroke="none" 
	d="
M96.045090,2.253896 
	C96.431190,2.935781 97.104073,4.099704 97.106483,5.265014 
	C97.162376,32.261806 97.146896,59.258747 97.131004,86.255653 
	C97.130722,86.743652 96.964470,87.231552 96.443649,87.831161 
	C96.014282,59.540745 96.016914,31.138660 96.045090,2.253896 
z"/>
<path fill="none" opacity="1.000000" stroke="none" 
	d="
M72.781853,52.836105 
	C57.320667,53.242931 41.588055,53.319633 25.386810,53.312538 
	C26.094553,52.818962 27.268988,52.059277 28.447615,52.052719 
	C42.505344,51.974468 56.563713,52.001854 70.621841,52.033520 
	C71.251724,52.034939 71.880913,52.341534 72.781853,52.836105 
z"/>
<path fill="none" opacity="1.000000" stroke="none" 
	d="
M23.734756,54.267639 
	C24.062828,64.075722 24.119648,74.166595 24.042587,84.256454 
	C24.032919,85.522263 23.317051,86.782661 22.486816,88.102325 
	C22.362082,83.732910 22.802336,79.311340 22.967041,74.879524 
	C23.218750,68.106766 23.280226,61.326946 23.734756,54.267639 
z"/>
<path fill="none" opacity="1.000000" stroke="none" 
	d="
M23.034561,2.298133 
	C23.401642,3.308380 24.031733,4.795626 24.046574,6.288987 
	C24.135246,15.211452 24.082087,24.135328 24.014429,33.523026 
	C23.633486,31.625271 23.072157,29.266529 23.039886,26.900570 
	C22.930241,18.861073 23.007439,10.819028 23.034561,2.298133 
z"/>
<path fill="none" opacity="1.000000" stroke="none" 
	d="
M24.173651,34.962067 
	C24.497110,34.788830 24.919037,34.874844 25.657524,35.028526 
	C25.406763,35.137905 24.839439,35.179615 24.173651,34.962067 
z"/>
<path fill="white" opacity="1.000000" stroke="none" 
	d="
M358.086548,2.523807 
	C388.130615,2.045756 418.112091,2.026797 448.631165,2.193766 
	C449.168762,2.379694 449.571259,2.529974 449.571259,2.529974 
	C449.571259,2.529974 449.916016,2.228632 449.916016,2.228632 
	C449.916016,2.228632 450.351929,2.177848 450.567871,2.138852 
	C452.128815,9.012514 449.873474,14.026819 444.473755,18.940193 
	C427.396423,34.479511 410.906006,50.663681 394.171570,66.580566 
	C393.469238,67.248596 392.596680,67.737671 392.307434,69.353607 
	C410.541962,69.353607 428.776459,69.353607 447.555756,69.711922 
	C448.425354,69.947952 448.750153,69.825668 449.074982,69.703384 
	C449.382629,75.464844 449.690308,81.226303 449.938171,87.446014 
	C449.878387,87.904251 449.404205,87.902740 449.081726,87.721115 
	C448.416046,87.368927 448.175262,87.483459 448.036896,87.883087 
	C417.659729,87.926956 387.282562,87.970833 356.350708,87.760162 
	C355.620819,87.261246 355.388733,87.097595 355.099731,87.014656 
	C353.906555,80.313766 355.941162,75.382492 361.239227,70.554482 
	C378.185669,55.111687 394.538910,39.017628 411.097076,23.149868 
	C412.266388,22.029318 413.239960,20.704542 413.870972,18.942850 
	C412.130798,18.273195 410.824371,18.017017 409.517639,18.015562 
	C392.403992,17.996510 375.290314,18.013462 358.176636,18.021372 
	C358.125732,13.008547 358.074860,7.995722 358.086548,2.523807 
z"/>
<path fill="none" opacity="1.000000" stroke="none" 
	d="
M448.787537,69.574120 
	C448.750153,69.825668 448.425354,69.947952 448.000000,69.853348 
	C448.099670,69.572594 448.299866,69.508720 448.787537,69.574120 
z"/>
<path fill="none" opacity="1.000000" stroke="none" 
	d="
M358.265808,18.452972 
	C375.290314,18.013462 392.403992,17.996510 409.517639,18.015562 
	C410.824371,18.017017 412.130798,18.273195 413.723450,18.718437 
	C395.458008,18.978792 376.906525,18.931684 358.265808,18.452972 
z"/>
<path fill="none" opacity="1.000000" stroke="none" 
	d="
M355.027100,87.243805 
	C355.388733,87.097595 355.620819,87.261246 355.883179,87.703316 
	C355.970337,87.901024 355.523804,87.984413 355.297852,87.961792 
	C355.071869,87.939163 354.954468,87.472954 355.027100,87.243805 
z"/>
<path fill="none" opacity="1.000000" stroke="none" 
	d="
M448.265381,87.910683 
	C448.175262,87.483459 448.416046,87.368927 448.848572,87.678268 
	C448.937836,87.817047 448.493835,87.938278 448.265381,87.910683 
z"/>
<path fill="none" opacity="1.000000" stroke="none" 
	d="
M449.701843,2.150556 
	C449.916016,2.228632 449.571259,2.529974 449.571259,2.529974 
	C449.571259,2.529974 449.168762,2.379694 449.100342,2.233500 
	C449.031921,2.087306 449.487640,2.072479 449.701843,2.150556 
z"/>
</svg>