<?xml version="1.0" standalone="no"?>
<!DOCTYPE svg PUBLIC "-//W3C//DTD SVG 20010904//EN"
 "http://www.w3.org/TR/2001/REC-SVG-20010904/DTD/svg10.dtd">
<svg version="1.0" xmlns="http://www.w3.org/2000/svg"
 width="512.000000pt" height="512.000000pt" viewBox="0 0 512.000000 512.000000"
 preserveAspectRatio="xMidYMid meet">

<g transform="translate(0.000000,512.000000) scale(0.100000,-0.100000)"
fill="#000000" stroke="none">
<path d="M737 5003 c-4 -3 -7 -249 -7 -545 l0 -538 610 0 610 0 -2 543 -3 542
-601 3 c-330 1 -604 -1 -607 -5z"/>
<path d="M2067 5003 c-4 -3 -7 -438 -7 -965 l0 -958 495 0 495 0 0 965 0 965
-488 0 c-269 0 -492 -3 -495 -7z m588 -148 c123 -32 212 -106 269 -225 29 -60
31 -73 31 -170 0 -98 -2 -109 -32 -171 -39 -80 -120 -159 -200 -197 -52 -24
-69 -27 -168 -27 -102 0 -115 3 -170 30 -247 121 -311 438 -127 636 108 117
251 161 397 124z"/>
<path d="M2457 4736 c-74 -27 -146 -99 -173 -173 -20 -58 -17 -160 7 -213 56
-124 195 -197 324 -170 109 23 203 117 225 227 10 47 9 67 -4 121 -33 136
-141 222 -276 221 -36 0 -82 -6 -103 -13z m159 -71 c86 -25 153 -113 154 -201
0 -58 -45 -142 -96 -177 -119 -83 -291 -14 -325 130 -5 24 -5 58 2 92 18 88
107 164 200 170 8 1 38 -6 65 -14z"/>
<path d="M2514 4550 c-31 -12 -54 -49 -54 -88 0 -48 46 -92 95 -92 27 0 44 8
66 29 76 76 -7 192 -107 151z"/>
<path d="M3170 4465 l0 -545 605 0 605 0 0 545 0 545 -605 0 -605 0 0 -545z"/>
<path d="M2120 2963 c1 -5 52 -80 114 -168 l113 -160 209 -2 209 -3 108 156
c59 85 110 161 114 169 4 13 -53 15 -431 15 -240 0 -436 -3 -436 -7z"/>
<path d="M2390 2414 c0 -153 38 -205 156 -212 76 -5 125 16 160 67 22 32 24
46 24 138 l0 103 -170 0 -170 0 0 -96z"/>
<path d="M2500 1905 c0 -162 2 -177 20 -195 11 -11 29 -20 40 -20 11 0 29 9
40 20 18 18 20 33 20 195 l0 175 -60 0 -60 0 0 -175z"/>
<path d="M1756 1918 c-9 -12 -16 -29 -16 -37 0 -8 114 -129 252 -268 203 -204
258 -253 279 -253 32 0 52 21 52 56 0 21 -51 77 -249 275 -265 266 -283 278
-318 227z"/>
<path d="M3046 1691 c-206 -206 -248 -253 -248 -277 0 -30 24 -54 57 -54 24 0
525 497 525 521 0 28 -30 59 -58 59 -22 0 -74 -47 -276 -249z"/>
<path d="M1756 1528 c-9 -12 -16 -29 -16 -37 0 -24 501 -521 525 -521 33 0 58
24 58 54 0 24 -43 71 -249 277 -265 266 -283 278 -318 227z"/>
<path d="M3046 1301 c-206 -206 -248 -253 -248 -277 0 -30 24 -54 57 -54 24 0
525 497 525 521 0 28 -30 59 -58 59 -22 0 -74 -47 -276 -249z"/>
<path d="M512 508 l3 -393 2045 0 2045 0 3 393 2 392 -707 0 -708 0 -235 -235
-235 -235 -169 0 -170 0 -236 235 -236 235 -702 0 -702 0 2 -392z"/>
</g>
</svg>
